<svg id="Capa_1" data-name="Capa 1" xmlns="http://www.w3.org/2000/svg" viewBox="0 0 180 180"><defs><style>.cls-1{fill:#000;}.cls-2{fill:#FFF;stroke:#fff;stroke-miterlimit:10;}</style></defs><circle class="cls-1" cx="90" cy="90" r="64.98"/><path class="cls-2" d="M120.15,103.55l2.22-2.21a3.58,3.58,0,0,0-2.54-6.11,3.55,3.55,0,0,0-2,.6l-.47-1.57,2.4-2.4a3.57,3.57,0,0,0-4.71-5.36L112.23,77c1.13-1.09,2.22-2.15,3.24-3.18a37.75,37.75,0,0,0,6.77-8.8c2.37-4.61,1.38-7.07.12-8.32s-3.71-2.25-8.31.13a38,38,0,0,0-8.81,6.76c-1,1-2.09,2.11-3.18,3.25L92.52,64a3.58,3.58,0,0,0-5.37-4.72l-2.4,2.4-1.56-.46a3.58,3.58,0,0,0-5.51-4.52l-2.22,2.21L64.17,55.5a1.14,1.14,0,0,0-1.14.29l-2.9,2.91a1.14,1.14,0,0,0,.13,1.72l28.5,20.86c-6.43,7.25-12.62,14.5-17,19.68l-8.38-3.22a1.15,1.15,0,0,0-1.22.26l-3.44,3.44a1.14,1.14,0,0,0,0,1.62L76,120.29a1.16,1.16,0,0,0,1.62,0L81,116.84a1.14,1.14,0,0,0,.25-1.22l-3.22-8.38c5.18-4.37,12.44-10.56,19.68-17L100,93.35A1.15,1.15,0,0,0,101.84,92l-2.4-3.27c3.79-3.38,7.54-6.79,10.93-10l10.76,36.13-1.48,1.48-14.79-20.2A1.15,1.15,0,0,0,103,97.48l15.58,21.28a1.16,1.16,0,0,0,1.73.13l2.91-2.91a1.14,1.14,0,0,0,.28-1.13ZM88.77,60.85a1.29,1.29,0,1,1,1.83,1.83l-.54.53-2.82-.84Zm-9.48-2.59a1.3,1.3,0,0,1,1.83,0,1.29,1.29,0,0,1,0,1.83l-.35.36L78,59.61ZM62.68,59.37l1.49-1.49,36.12,10.76c-3.21,3.4-6.63,7.14-10,10.93Zm.58,40.77,7,2.67c-1.75,2.08-3.09,3.69-3.87,4.64l-5.2-5.2ZM68,109.07c4-4.8,25-30,38.89-43.91a35.55,35.55,0,0,1,8.24-6.35c1.86-1,4.35-1.84,5.65-.55s.42,3.79-.54,5.66a36.55,36.55,0,0,1-6.35,8.24C100,86,74.75,107.06,69.94,111.05Zm10.91,6.68-2.12,2.12-5.19-5.2,4.63-3.87Zm40-17.86a1.29,1.29,0,0,1,1.83,1.83l-1.34,1.34-.84-2.82Zm-2.58-9.48a1.3,1.3,0,0,1,1.83,0,1.34,1.34,0,0,1,0,1.84l-1.53,1.52L115.8,89Z"/><path class="cls-2" d="M114.77,121.11,105,130.86a1.14,1.14,0,1,0,1.62,1.61l9.74-9.74a1.14,1.14,0,0,0,0-1.62A1.13,1.13,0,0,0,114.77,121.11Z"/><path class="cls-2" d="M111.51,117.85a1.14,1.14,0,1,0-1.62-1.61l-6.09,6.09a1.14,1.14,0,1,0,1.62,1.61Z"/><path class="cls-2" d="M107.85,111.76a1.14,1.14,0,0,0-1.61-1.61L102,114.41a1.14,1.14,0,1,0,1.62,1.61Z"/><path class="cls-2" d="M57.9,63.24a1.15,1.15,0,0,0-1.61,0L46.54,73a1.15,1.15,0,0,0,0,1.61,1.16,1.16,0,0,0,1.62,0l9.74-9.74A1.14,1.14,0,0,0,57.9,63.24Z"/><path class="cls-2" d="M62.78,68.12a1.14,1.14,0,0,0-1.62,0l-6.09,6.09a1.14,1.14,0,1,0,1.62,1.61l6.09-6.09A1.15,1.15,0,0,0,62.78,68.12Z"/><path class="cls-2" d="M63,77.65a1.15,1.15,0,0,0,1.61,0l4.27-4.26a1.16,1.16,0,0,0,0-1.62,1.14,1.14,0,0,0-1.62,0L63,76A1.14,1.14,0,0,0,63,77.65Z"/></svg>